<svg xmlns="http://www.w3.org/2000/svg" version="1.1" xmlns:xlink="http://www.w3.org/1999/xlink" xmlns:svgjs="http://svgjs.com/svgjs" width="1440" height="560" preserveAspectRatio="none" viewBox="0 0 1440 560"><g mask="url(&quot;#SvgjsMask1000&quot;)" fill="none"><rect width="1440" height="560" x="0" y="0" fill="#0e2a47"></rect><path d="M-55.97 365.61L-55.97 365.61" stroke="#132e65" stroke-width="1.5"></path><path d="M-55.97 365.61L78.28 353.25" stroke="#132e65" stroke-width="1.5"></path><path d="M-55.97 365.61L-98.9 523.46" stroke="#132e65" stroke-width="1.5"></path><path d="M-55.97 365.61L63.42 500.93" stroke="#132e65" stroke-width="1.5"></path><path d="M-55.97 365.61L222.06 353.33" stroke="#132e65" stroke-width="1.5"></path><path d="M-98.9 523.46L-98.9 523.46" stroke="#132e65" stroke-width="1.5"></path><path d="M-98.9 523.46L-44.61 648.07" stroke="#132e65" stroke-width="1.5"></path><path d="M-98.9 523.46L63.42 500.93" stroke="#132e65" stroke-width="1.5"></path><path d="M-98.9 523.46L45.35 653.97" stroke="#132e65" stroke-width="1.5"></path><path d="M-44.61 648.07L-44.61 648.07" stroke="#132e65" stroke-width="1.5"></path><path d="M-44.61 648.07L45.35 653.97" stroke="#132e65" stroke-width="1.5"></path><path d="M78.28 353.25L78.28 353.25" stroke="#132e65" stroke-width="1.5"></path><path d="M78.28 353.25L222.06 353.33" stroke="#132e65" stroke-width="1.5"></path><path d="M63.42 500.93L63.42 500.93" stroke="#132e65" stroke-width="1.5"></path><path d="M63.42 500.93L204.46 539.77" stroke="#132e65" stroke-width="1.5"></path><path d="M63.42 500.93L78.28 353.25" stroke="#132e65" stroke-width="1.5"></path><path d="M63.42 500.93L45.35 653.97" stroke="#132e65" stroke-width="1.5"></path><path d="M45.35 653.97L45.35 653.97" stroke="#132e65" stroke-width="1.5"></path><path d="M222.06 353.33L222.06 353.33" stroke="#132e65" stroke-width="1.5"></path><path d="M222.06 353.33L367.65 359.73" stroke="#132e65" stroke-width="1.5"></path><path d="M204.46 539.77L204.46 539.77" stroke="#132e65" stroke-width="1.5"></path><path d="M204.46 539.77L200.19 657.34" stroke="#132e65" stroke-width="1.5"></path><path d="M204.46 539.77L359.85 562.29" stroke="#132e65" stroke-width="1.5"></path><path d="M200.19 657.34L200.19 657.34" stroke="#132e65" stroke-width="1.5"></path><path d="M200.19 657.34L45.35 653.97" stroke="#132e65" stroke-width="1.5"></path><path d="M367.65 359.73L367.65 359.73" stroke="#132e65" stroke-width="1.5"></path><path d="M367.65 359.73L537.24 396.64" stroke="#132e65" stroke-width="1.5"></path><path d="M367.65 359.73L493.24 505.08" stroke="#132e65" stroke-width="1.5"></path><path d="M359.85 562.29L359.85 562.29" stroke="#132e65" stroke-width="1.5"></path><path d="M359.85 562.29L353.88 687.39" stroke="#132e65" stroke-width="1.5"></path><path d="M359.85 562.29L493.24 505.08" stroke="#132e65" stroke-width="1.5"></path><path d="M353.88 687.39L353.88 687.39" stroke="#132e65" stroke-width="1.5"></path><path d="M353.88 687.39L200.19 657.34" stroke="#132e65" stroke-width="1.5"></path><path d="M353.88 687.39L542.98 658.09" stroke="#132e65" stroke-width="1.5"></path><path d="M353.88 687.39L204.46 539.77" stroke="#132e65" stroke-width="1.5"></path><path d="M353.88 687.39L493.24 505.08" stroke="#132e65" stroke-width="1.5"></path><path d="M353.88 687.39L642.1 652.2" stroke="#132e65" stroke-width="1.5"></path><path d="M537.24 396.64L537.24 396.64" stroke="#132e65" stroke-width="1.5"></path><path d="M537.24 396.64L493.24 505.08" stroke="#132e65" stroke-width="1.5"></path><path d="M493.24 505.08L493.24 505.08" stroke="#132e65" stroke-width="1.5"></path><path d="M542.98 658.09L542.98 658.09" stroke="#132e65" stroke-width="1.5"></path><path d="M542.98 658.09L642.1 652.2" stroke="#132e65" stroke-width="1.5"></path><path d="M542.98 658.09L493.24 505.08" stroke="#132e65" stroke-width="1.5"></path><path d="M542.98 658.09L359.85 562.29" stroke="#132e65" stroke-width="1.5"></path><path d="M663.12 247.48L663.12 247.48" stroke="#132e65" stroke-width="1.5"></path><path d="M663.12 247.48L811.4 192.4" stroke="#132e65" stroke-width="1.5"></path><path d="M663.12 247.48L711.91 411.58" stroke="#132e65" stroke-width="1.5"></path><path d="M663.12 247.48L820.05 348.19" stroke="#132e65" stroke-width="1.5"></path><path d="M663.12 247.48L537.24 396.64" stroke="#132e65" stroke-width="1.5"></path><path d="M663.12 247.48L699.78 496.05" stroke="#132e65" stroke-width="1.5"></path><path d="M663.12 247.48L493.24 505.08" stroke="#132e65" stroke-width="1.5"></path><path d="M711.91 411.58L711.91 411.58" stroke="#132e65" stroke-width="1.5"></path><path d="M711.91 411.58L699.78 496.05" stroke="#132e65" stroke-width="1.5"></path><path d="M711.91 411.58L820.05 348.19" stroke="#132e65" stroke-width="1.5"></path><path d="M711.91 411.58L795.6 541.73" stroke="#132e65" stroke-width="1.5"></path><path d="M699.78 496.05L699.78 496.05" stroke="#132e65" stroke-width="1.5"></path><path d="M699.78 496.05L795.6 541.73" stroke="#132e65" stroke-width="1.5"></path><path d="M699.78 496.05L642.1 652.2" stroke="#132e65" stroke-width="1.5"></path><path d="M699.78 496.05L537.24 396.64" stroke="#132e65" stroke-width="1.5"></path><path d="M642.1 652.2L642.1 652.2" stroke="#132e65" stroke-width="1.5"></path><path d="M642.1 652.2L824.8 647.32" stroke="#132e65" stroke-width="1.5"></path><path d="M642.1 652.2L795.6 541.73" stroke="#132e65" stroke-width="1.5"></path><path d="M642.1 652.2L493.24 505.08" stroke="#132e65" stroke-width="1.5"></path><path d="M811.4 192.4L811.4 192.4" stroke="#132e65" stroke-width="1.5"></path><path d="M811.4 192.4L820.05 348.19" stroke="#132e65" stroke-width="1.5"></path><path d="M811.4 192.4L987.49 214.14" stroke="#132e65" stroke-width="1.5"></path><path d="M811.4 192.4L989.58 110.46" stroke="#132e65" stroke-width="1.5"></path><path d="M820.05 348.19L820.05 348.19" stroke="#132e65" stroke-width="1.5"></path><path d="M820.05 348.19L993.14 369.9" stroke="#132e65" stroke-width="1.5"></path><path d="M820.05 348.19L699.78 496.05" stroke="#132e65" stroke-width="1.5"></path><path d="M795.6 541.73L795.6 541.73" stroke="#132e65" stroke-width="1.5"></path><path d="M795.6 541.73L824.8 647.32" stroke="#132e65" stroke-width="1.5"></path><path d="M795.6 541.73L820.05 348.19" stroke="#132e65" stroke-width="1.5"></path><path d="M795.6 541.73L1011.1 532.08" stroke="#132e65" stroke-width="1.5"></path><path d="M824.8 647.32L824.8 647.32" stroke="#132e65" stroke-width="1.5"></path><path d="M824.8 647.32L1000.99 639.9" stroke="#132e65" stroke-width="1.5"></path><path d="M967.34 -103.17L967.34 -103.17" stroke="#132e65" stroke-width="1.5"></path><path d="M967.34 -103.17L1146.37 -96.33" stroke="#132e65" stroke-width="1.5"></path><path d="M989.58 110.46L989.58 110.46" stroke="#132e65" stroke-width="1.5"></path><path d="M989.58 110.46L987.49 214.14" stroke="#132e65" stroke-width="1.5"></path><path d="M989.58 110.46L1140.21 108.1" stroke="#132e65" stroke-width="1.5"></path><path d="M987.49 214.14L987.49 214.14" stroke="#132e65" stroke-width="1.5"></path><path d="M987.49 214.14L1092.13 238.48" stroke="#132e65" stroke-width="1.5"></path><path d="M987.49 214.14L993.14 369.9" stroke="#132e65" stroke-width="1.5"></path><path d="M993.14 369.9L993.14 369.9" stroke="#132e65" stroke-width="1.5"></path><path d="M993.14 369.9L1102.06 351.53" stroke="#132e65" stroke-width="1.5"></path><path d="M993.14 369.9L1011.1 532.08" stroke="#132e65" stroke-width="1.5"></path><path d="M1011.1 532.08L1011.1 532.08" stroke="#132e65" stroke-width="1.5"></path><path d="M1011.1 532.08L1000.99 639.9" stroke="#132e65" stroke-width="1.5"></path><path d="M1011.1 532.08L1150.31 531.2" stroke="#132e65" stroke-width="1.5"></path><path d="M1011.1 532.08L1150.34 643.34" stroke="#132e65" stroke-width="1.5"></path><path d="M1011.1 532.08L1102.06 351.53" stroke="#132e65" stroke-width="1.5"></path><path d="M1000.99 639.9L1000.99 639.9" stroke="#132e65" stroke-width="1.5"></path><path d="M1000.99 639.9L1150.34 643.34" stroke="#132e65" stroke-width="1.5"></path><path d="M1000.99 639.9L1150.31 531.2" stroke="#132e65" stroke-width="1.5"></path><path d="M1000.99 639.9L795.6 541.73" stroke="#132e65" stroke-width="1.5"></path><path d="M1000.99 639.9L993.14 369.9" stroke="#132e65" stroke-width="1.5"></path><path d="M1146.37 -96.33L1146.37 -96.33" stroke="#132e65" stroke-width="1.5"></path><path d="M1146.37 -96.33L1298.16 -56.09" stroke="#132e65" stroke-width="1.5"></path><path d="M1146.37 -96.33L1246.54 80.13" stroke="#132e65" stroke-width="1.5"></path><path d="M1146.37 -96.33L1140.21 108.1" stroke="#132e65" stroke-width="1.5"></path><path d="M1146.37 -96.33L1402.94 -86.78" stroke="#132e65" stroke-width="1.5"></path><path d="M1146.37 -96.33L989.58 110.46" stroke="#132e65" stroke-width="1.5"></path><path d="M1140.21 108.1L1140.21 108.1" stroke="#132e65" stroke-width="1.5"></path><path d="M1140.21 108.1L1246.54 80.13" stroke="#132e65" stroke-width="1.5"></path><path d="M1140.21 108.1L1092.13 238.48" stroke="#132e65" stroke-width="1.5"></path><path d="M1140.21 108.1L1290.47 191.29" stroke="#132e65" stroke-width="1.5"></path><path d="M1140.21 108.1L987.49 214.14" stroke="#132e65" stroke-width="1.5"></path><path d="M1092.13 238.48L1092.13 238.48" stroke="#132e65" stroke-width="1.5"></path><path d="M1092.13 238.48L1102.06 351.53" stroke="#132e65" stroke-width="1.5"></path><path d="M1092.13 238.48L989.58 110.46" stroke="#132e65" stroke-width="1.5"></path><path d="M1092.13 238.48L993.14 369.9" stroke="#132e65" stroke-width="1.5"></path><path d="M1092.13 238.48L1290.47 191.29" stroke="#132e65" stroke-width="1.5"></path><path d="M1102.06 351.53L1102.06 351.53" stroke="#132e65" stroke-width="1.5"></path><path d="M1102.06 351.53L987.49 214.14" stroke="#132e65" stroke-width="1.5"></path><path d="M1102.06 351.53L1285.86 370.43" stroke="#132e65" stroke-width="1.5"></path><path d="M1102.06 351.53L1150.31 531.2" stroke="#132e65" stroke-width="1.5"></path><path d="M1150.31 531.2L1150.31 531.2" stroke="#132e65" stroke-width="1.5"></path><path d="M1150.31 531.2L1150.34 643.34" stroke="#132e65" stroke-width="1.5"></path><path d="M1150.31 531.2L1277.8 543.31" stroke="#132e65" stroke-width="1.5"></path><path d="M1150.34 643.34L1150.34 643.34" stroke="#132e65" stroke-width="1.5"></path><path d="M1298.16 -56.09L1298.16 -56.09" stroke="#132e65" stroke-width="1.5"></path><path d="M1298.16 -56.09L1402.94 -86.78" stroke="#132e65" stroke-width="1.5"></path><path d="M1298.16 -56.09L1246.54 80.13" stroke="#132e65" stroke-width="1.5"></path><path d="M1298.16 -56.09L1405.31 46.62" stroke="#132e65" stroke-width="1.5"></path><path d="M1246.54 80.13L1246.54 80.13" stroke="#132e65" stroke-width="1.5"></path><path d="M1246.54 80.13L1290.47 191.29" stroke="#132e65" stroke-width="1.5"></path><path d="M1246.54 80.13L1405.31 46.62" stroke="#132e65" stroke-width="1.5"></path><path d="M1246.54 80.13L1414.97 194.69" stroke="#132e65" stroke-width="1.5"></path><path d="M1290.47 191.29L1290.47 191.29" stroke="#132e65" stroke-width="1.5"></path><path d="M1290.47 191.29L1414.97 194.69" stroke="#132e65" stroke-width="1.5"></path><path d="M1285.86 370.43L1285.86 370.43" stroke="#132e65" stroke-width="1.5"></path><path d="M1285.86 370.43L1441.64 364.53" stroke="#132e65" stroke-width="1.5"></path><path d="M1285.86 370.43L1277.8 543.31" stroke="#132e65" stroke-width="1.5"></path><path d="M1285.86 370.43L1406.7 499.9" stroke="#132e65" stroke-width="1.5"></path><path d="M1285.86 370.43L1290.47 191.29" stroke="#132e65" stroke-width="1.5"></path><path d="M1277.8 543.31L1277.8 543.31" stroke="#132e65" stroke-width="1.5"></path><path d="M1277.8 543.31L1406.7 499.9" stroke="#132e65" stroke-width="1.5"></path><path d="M1277.8 543.31L1306.64 698.77" stroke="#132e65" stroke-width="1.5"></path><path d="M1277.8 543.31L1150.34 643.34" stroke="#132e65" stroke-width="1.5"></path><path d="M1277.8 543.31L1394.47 700.89" stroke="#132e65" stroke-width="1.5"></path><path d="M1306.64 698.77L1306.64 698.77" stroke="#132e65" stroke-width="1.5"></path><path d="M1306.64 698.77L1394.47 700.89" stroke="#132e65" stroke-width="1.5"></path><path d="M1306.64 698.77L1150.34 643.34" stroke="#132e65" stroke-width="1.5"></path><path d="M1402.94 -86.78L1402.94 -86.78" stroke="#132e65" stroke-width="1.5"></path><path d="M1402.94 -86.78L1405.31 46.62" stroke="#132e65" stroke-width="1.5"></path><path d="M1402.94 -86.78L1609.26 -65.08" stroke="#132e65" stroke-width="1.5"></path><path d="M1402.94 -86.78L1575.45 43.83" stroke="#132e65" stroke-width="1.5"></path><path d="M1405.31 46.62L1405.31 46.62" stroke="#132e65" stroke-width="1.5"></path><path d="M1405.31 46.62L1414.97 194.69" stroke="#132e65" stroke-width="1.5"></path><path d="M1414.97 194.69L1414.97 194.69" stroke="#132e65" stroke-width="1.5"></path><path d="M1414.97 194.69L1441.64 364.53" stroke="#132e65" stroke-width="1.5"></path><path d="M1414.97 194.69L1603.9 219.5" stroke="#132e65" stroke-width="1.5"></path><path d="M1414.97 194.69L1285.86 370.43" stroke="#132e65" stroke-width="1.5"></path><path d="M1441.64 364.53L1441.64 364.53" stroke="#132e65" stroke-width="1.5"></path><path d="M1441.64 364.53L1406.7 499.9" stroke="#132e65" stroke-width="1.5"></path><path d="M1406.7 499.9L1406.7 499.9" stroke="#132e65" stroke-width="1.5"></path><path d="M1406.7 499.9L1578.1 495.9" stroke="#132e65" stroke-width="1.5"></path><path d="M1394.47 700.89L1394.47 700.89" stroke="#132e65" stroke-width="1.5"></path><path d="M1609.26 -65.08L1609.26 -65.08" stroke="#132e65" stroke-width="1.5"></path><path d="M1609.26 -65.08L1575.45 43.83" stroke="#132e65" stroke-width="1.5"></path><path d="M1609.26 -65.08L1405.31 46.62" stroke="#132e65" stroke-width="1.5"></path><path d="M1575.45 43.83L1575.45 43.83" stroke="#132e65" stroke-width="1.5"></path><path d="M1575.45 43.83L1405.31 46.62" stroke="#132e65" stroke-width="1.5"></path><path d="M1575.45 43.83L1603.9 219.5" stroke="#132e65" stroke-width="1.5"></path><path d="M1603.9 219.5L1603.9 219.5" stroke="#132e65" stroke-width="1.5"></path><path d="M1603.9 219.5L1441.64 364.53" stroke="#132e65" stroke-width="1.5"></path><path d="M1603.9 219.5L1405.31 46.62" stroke="#132e65" stroke-width="1.5"></path><path d="M1603.9 219.5L1578.1 495.9" stroke="#132e65" stroke-width="1.5"></path><path d="M1578.1 495.9L1578.1 495.9" stroke="#132e65" stroke-width="1.5"></path><path d="M1578.1 495.9L1607.96 673.33" stroke="#132e65" stroke-width="1.5"></path><path d="M1578.1 495.9L1441.64 364.53" stroke="#132e65" stroke-width="1.5"></path><path d="M1578.1 495.9L1394.47 700.89" stroke="#132e65" stroke-width="1.5"></path><path d="M1607.96 673.33L1607.96 673.33" stroke="#132e65" stroke-width="1.5"></path><path d="M1607.96 673.33L1394.47 700.89" stroke="#132e65" stroke-width="1.5"></path><circle r="5" cx="-55.97" cy="365.61" fill="#132e65"></circle><circle r="5" cx="-98.9" cy="523.46" fill="#132e65"></circle><circle r="5" cx="-44.61" cy="648.07" fill="#132e65"></circle><circle r="5" cx="78.28" cy="353.25" fill="#132e65"></circle><circle r="5" cx="63.42" cy="500.93" fill="#132e65"></circle><circle r="5" cx="45.35" cy="653.97" fill="#132e65"></circle><circle r="5" cx="222.06" cy="353.33" fill="#132e65"></circle><circle r="5" cx="204.46" cy="539.77" fill="#132e65"></circle><circle r="5" cx="200.19" cy="657.34" fill="#132e65"></circle><circle r="5" cx="367.65" cy="359.73" fill="#132e65"></circle><circle r="5" cx="359.85" cy="562.29" fill="#132e65"></circle><circle r="5" cx="353.88" cy="687.39" fill="#132e65"></circle><circle r="5" cx="537.24" cy="396.64" fill="#132e65"></circle><circle r="5" cx="493.24" cy="505.08" fill="#132e65"></circle><circle r="5" cx="542.98" cy="658.09" fill="#132e65"></circle><circle r="5" cx="663.12" cy="247.48" fill="#132e65"></circle><circle r="5" cx="711.91" cy="411.58" fill="#132e65"></circle><circle r="5" cx="699.78" cy="496.05" fill="#132e65"></circle><circle r="5" cx="642.1" cy="652.2" fill="#132e65"></circle><circle r="5" cx="811.4" cy="192.4" fill="#132e65"></circle><circle r="5" cx="820.05" cy="348.19" fill="#132e65"></circle><circle r="5" cx="795.6" cy="541.73" fill="#132e65"></circle><circle r="5" cx="824.8" cy="647.32" fill="#132e65"></circle><circle r="5" cx="967.34" cy="-103.17" fill="#132e65"></circle><circle r="5" cx="989.58" cy="110.46" fill="#132e65"></circle><circle r="5" cx="987.49" cy="214.14" fill="#132e65"></circle><circle r="5" cx="993.14" cy="369.9" fill="#132e65"></circle><circle r="5" cx="1011.1" cy="532.08" fill="#132e65"></circle><circle r="5" cx="1000.99" cy="639.9" fill="#132e65"></circle><circle r="5" cx="1146.37" cy="-96.33" fill="#132e65"></circle><circle r="5" cx="1140.21" cy="108.1" fill="#132e65"></circle><circle r="5" cx="1092.13" cy="238.48" fill="#132e65"></circle><circle r="5" cx="1102.06" cy="351.53" fill="#132e65"></circle><circle r="5" cx="1150.31" cy="531.2" fill="#132e65"></circle><circle r="5" cx="1150.34" cy="643.34" fill="#132e65"></circle><circle r="5" cx="1298.16" cy="-56.09" fill="#132e65"></circle><circle r="5" cx="1246.54" cy="80.13" fill="#132e65"></circle><circle r="5" cx="1290.47" cy="191.29" fill="#132e65"></circle><circle r="5" cx="1285.86" cy="370.43" fill="#132e65"></circle><circle r="5" cx="1277.8" cy="543.31" fill="#132e65"></circle><circle r="5" cx="1306.64" cy="698.77" fill="#132e65"></circle><circle r="5" cx="1402.94" cy="-86.78" fill="#132e65"></circle><circle r="5" cx="1405.31" cy="46.62" fill="#132e65"></circle><circle r="5" cx="1414.97" cy="194.69" fill="#132e65"></circle><circle r="5" cx="1441.64" cy="364.53" fill="#132e65"></circle><circle r="5" cx="1406.7" cy="499.9" fill="#132e65"></circle><circle r="5" cx="1394.47" cy="700.89" fill="#132e65"></circle><circle r="5" cx="1609.26" cy="-65.08" fill="#132e65"></circle><circle r="5" cx="1575.45" cy="43.83" fill="#132e65"></circle><circle r="5" cx="1603.9" cy="219.5" fill="#132e65"></circle><circle r="5" cx="1578.1" cy="495.9" fill="#132e65"></circle><circle r="5" cx="1607.96" cy="673.33" fill="#132e65"></circle><path d="M347.04 499.86L347.04 499.86" stroke="hsl(228.5, 77.2%, 51.5%)" stroke-width="1.5"></path><path d="M347.04 499.86L223.93 540.22" stroke="hsl(228.5, 77.2%, 51.5%)" stroke-width="1.5"></path><path d="M347.04 499.86L372.71 667.54" stroke="hsl(228.5, 77.2%, 51.5%)" stroke-width="1.5"></path><path d="M347.04 499.86L495.11 408.81" stroke="hsl(228.5, 77.2%, 51.5%)" stroke-width="1.5"></path><path d="M971.59 560.35L971.59 560.35" stroke="hsl(228.5, 77.2%, 51.5%)" stroke-width="1.5"></path><path d="M971.59 560.35L949.19 683.94" stroke="hsl(228.5, 77.2%, 51.5%)" stroke-width="1.5"></path><path d="M971.59 560.35L821.02 547.46" stroke="hsl(228.5, 77.2%, 51.5%)" stroke-width="1.5"></path><path d="M971.59 560.35L1136.57 551.82" stroke="hsl(228.5, 77.2%, 51.5%)" stroke-width="1.5"></path><path d="M971.59 560.35L846.77 681.9" stroke="hsl(228.5, 77.2%, 51.5%)" stroke-width="1.5"></path><path d="M971.59 560.35L958.73 384.45" stroke="hsl(228.5, 77.2%, 51.5%)" stroke-width="1.5"></path><path d="M1307.59 -61.05L1307.59 -61.05" stroke="hsl(228.5, 77.2%, 51.5%)" stroke-width="1.5"></path><path d="M1307.59 -61.05L1400.22 71.01" stroke="hsl(228.5, 77.2%, 51.5%)" stroke-width="1.5"></path><path d="M1307.59 -61.05L1295.22 105.94" stroke="hsl(228.5, 77.2%, 51.5%)" stroke-width="1.5"></path><path d="M1307.59 -61.05L1552.19 -51.64" stroke="hsl(228.5, 77.2%, 51.5%)" stroke-width="1.5"></path><path d="M1307.59 -61.05L1284.3 227.21" stroke="hsl(228.5, 77.2%, 51.5%)" stroke-width="1.5"></path><path d="M1307.59 -61.05L1587.05 103.01" stroke="hsl(228.5, 77.2%, 51.5%)" stroke-width="1.5"></path><path d="M1421.21 245.75L1421.21 245.75" stroke="hsl(228.5, 77.2%, 51.5%)" stroke-width="1.5"></path><path d="M1421.21 245.75L1451.91 342.31" stroke="hsl(228.5, 77.2%, 51.5%)" stroke-width="1.5"></path><path d="M1421.21 245.75L1284.3 227.21" stroke="hsl(228.5, 77.2%, 51.5%)" stroke-width="1.5"></path><path d="M1421.21 245.75L1400.22 71.01" stroke="hsl(228.5, 77.2%, 51.5%)" stroke-width="1.5"></path><path d="M1421.21 245.75L1295.22 105.94" stroke="hsl(228.5, 77.2%, 51.5%)" stroke-width="1.5"></path><path d="M1421.21 245.75L1604.49 189.43" stroke="hsl(228.5, 77.2%, 51.5%)" stroke-width="1.5"></path><path d="M1604.49 189.43L1604.49 189.43" stroke="hsl(228.5, 77.2%, 51.5%)" stroke-width="1.5"></path><path d="M1604.49 189.43L1587.05 103.01" stroke="hsl(228.5, 77.2%, 51.5%)" stroke-width="1.5"></path><path d="M1604.49 189.43L1451.91 342.31" stroke="hsl(228.5, 77.2%, 51.5%)" stroke-width="1.5"></path><path d="M1542.05 407.39L1542.05 407.39" stroke="hsl(228.5, 77.2%, 51.5%)" stroke-width="1.5"></path><path d="M1542.05 407.39L1451.91 342.31" stroke="hsl(228.5, 77.2%, 51.5%)" stroke-width="1.5"></path><path d="M1542.05 407.39L1596.83 525.7" stroke="hsl(228.5, 77.2%, 51.5%)" stroke-width="1.5"></path><path d="M-86.04 495.41L-86.04 495.41" stroke="hsl(228.5, 77.2%, 51.5%)" stroke-width="1.5"></path><path d="M-86.04 495.41L-108.41 639.21" stroke="hsl(228.5, 77.2%, 51.5%)" stroke-width="1.5"></path><path d="M-86.04 495.41L98.94 493.87" stroke="hsl(228.5, 77.2%, 51.5%)" stroke-width="1.5"></path><path d="M-86.04 495.41L85.29 664.48" stroke="hsl(228.5, 77.2%, 51.5%)" stroke-width="1.5"></path><path d="M-86.04 495.41L223.93 540.22" stroke="hsl(228.5, 77.2%, 51.5%)" stroke-width="1.5"></path><path d="M-86.04 495.41L214.18 647.76" stroke="hsl(228.5, 77.2%, 51.5%)" stroke-width="1.5"></path><path d="M-86.04 495.41L347.04 499.86" stroke="hsl(228.5, 77.2%, 51.5%)" stroke-width="1.5"></path><path d="M-108.41 639.21L-108.41 639.21" stroke="hsl(228.5, 77.2%, 51.5%)" stroke-width="1.5"></path><path d="M-108.41 639.21L85.29 664.48" stroke="hsl(228.5, 77.2%, 51.5%)" stroke-width="1.5"></path><path d="M-108.41 639.21L98.94 493.87" stroke="hsl(228.5, 77.2%, 51.5%)" stroke-width="1.5"></path><path d="M-108.41 639.21L214.18 647.76" stroke="hsl(228.5, 77.2%, 51.5%)" stroke-width="1.5"></path><path d="M98.94 493.87L98.94 493.87" stroke="hsl(228.5, 77.2%, 51.5%)" stroke-width="1.5"></path><path d="M98.94 493.87L223.93 540.22" stroke="hsl(228.5, 77.2%, 51.5%)" stroke-width="1.5"></path><path d="M98.94 493.87L85.29 664.48" stroke="hsl(228.5, 77.2%, 51.5%)" stroke-width="1.5"></path><path d="M98.94 493.87L214.18 647.76" stroke="hsl(228.5, 77.2%, 51.5%)" stroke-width="1.5"></path><path d="M98.94 493.87L347.04 499.86" stroke="hsl(228.5, 77.2%, 51.5%)" stroke-width="1.5"></path><path d="M85.29 664.48L85.29 664.48" stroke="hsl(228.5, 77.2%, 51.5%)" stroke-width="1.5"></path><path d="M85.29 664.48L214.18 647.76" stroke="hsl(228.5, 77.2%, 51.5%)" stroke-width="1.5"></path><path d="M85.29 664.48L223.93 540.22" stroke="hsl(228.5, 77.2%, 51.5%)" stroke-width="1.5"></path><path d="M223.93 540.22L223.93 540.22" stroke="hsl(228.5, 77.2%, 51.5%)" stroke-width="1.5"></path><path d="M223.93 540.22L214.18 647.76" stroke="hsl(228.5, 77.2%, 51.5%)" stroke-width="1.5"></path><path d="M214.18 647.76L214.18 647.76" stroke="hsl(228.5, 77.2%, 51.5%)" stroke-width="1.5"></path><path d="M372.71 667.54L372.71 667.54" stroke="hsl(228.5, 77.2%, 51.5%)" stroke-width="1.5"></path><path d="M372.71 667.54L514.23 662.16" stroke="hsl(228.5, 77.2%, 51.5%)" stroke-width="1.5"></path><path d="M372.71 667.54L214.18 647.76" stroke="hsl(228.5, 77.2%, 51.5%)" stroke-width="1.5"></path><path d="M495.11 408.81L495.11 408.81" stroke="hsl(228.5, 77.2%, 51.5%)" stroke-width="1.5"></path><path d="M495.11 408.81L526.12 552.53" stroke="hsl(228.5, 77.2%, 51.5%)" stroke-width="1.5"></path><path d="M495.11 408.81L703.74 377.66" stroke="hsl(228.5, 77.2%, 51.5%)" stroke-width="1.5"></path><path d="M495.11 408.81L675.65 519.4" stroke="hsl(228.5, 77.2%, 51.5%)" stroke-width="1.5"></path><path d="M495.11 408.81L514.23 662.16" stroke="hsl(228.5, 77.2%, 51.5%)" stroke-width="1.5"></path><path d="M495.11 408.81L372.71 667.54" stroke="hsl(228.5, 77.2%, 51.5%)" stroke-width="1.5"></path><path d="M526.12 552.53L526.12 552.53" stroke="hsl(228.5, 77.2%, 51.5%)" stroke-width="1.5"></path><path d="M526.12 552.53L514.23 662.16" stroke="hsl(228.5, 77.2%, 51.5%)" stroke-width="1.5"></path><path d="M526.12 552.53L675.65 519.4" stroke="hsl(228.5, 77.2%, 51.5%)" stroke-width="1.5"></path><path d="M514.23 662.16L514.23 662.16" stroke="hsl(228.5, 77.2%, 51.5%)" stroke-width="1.5"></path><path d="M514.23 662.16L658.97 679.36" stroke="hsl(228.5, 77.2%, 51.5%)" stroke-width="1.5"></path><path d="M514.23 662.16L675.65 519.4" stroke="hsl(228.5, 77.2%, 51.5%)" stroke-width="1.5"></path><path d="M703.74 377.66L703.74 377.66" stroke="hsl(228.5, 77.2%, 51.5%)" stroke-width="1.5"></path><path d="M703.74 377.66L675.65 519.4" stroke="hsl(228.5, 77.2%, 51.5%)" stroke-width="1.5"></path><path d="M703.74 377.66L821.02 547.46" stroke="hsl(228.5, 77.2%, 51.5%)" stroke-width="1.5"></path><path d="M703.74 377.66L526.12 552.53" stroke="hsl(228.5, 77.2%, 51.5%)" stroke-width="1.5"></path><path d="M675.65 519.4L675.65 519.4" stroke="hsl(228.5, 77.2%, 51.5%)" stroke-width="1.5"></path><path d="M658.97 679.36L658.97 679.36" stroke="hsl(228.5, 77.2%, 51.5%)" stroke-width="1.5"></path><path d="M658.97 679.36L675.65 519.4" stroke="hsl(228.5, 77.2%, 51.5%)" stroke-width="1.5"></path><path d="M821.02 547.46L821.02 547.46" stroke="hsl(228.5, 77.2%, 51.5%)" stroke-width="1.5"></path><path d="M821.02 547.46L846.77 681.9" stroke="hsl(228.5, 77.2%, 51.5%)" stroke-width="1.5"></path><path d="M821.02 547.46L675.65 519.4" stroke="hsl(228.5, 77.2%, 51.5%)" stroke-width="1.5"></path><path d="M821.02 547.46L949.19 683.94" stroke="hsl(228.5, 77.2%, 51.5%)" stroke-width="1.5"></path><path d="M846.77 681.9L846.77 681.9" stroke="hsl(228.5, 77.2%, 51.5%)" stroke-width="1.5"></path><path d="M846.77 681.9L949.19 683.94" stroke="hsl(228.5, 77.2%, 51.5%)" stroke-width="1.5"></path><path d="M846.77 681.9L658.97 679.36" stroke="hsl(228.5, 77.2%, 51.5%)" stroke-width="1.5"></path><path d="M981.1 240L981.1 240" stroke="hsl(228.5, 77.2%, 51.5%)" stroke-width="1.5"></path><path d="M981.1 240L1116.05 235.48" stroke="hsl(228.5, 77.2%, 51.5%)" stroke-width="1.5"></path><path d="M981.1 240L958.73 384.45" stroke="hsl(228.5, 77.2%, 51.5%)" stroke-width="1.5"></path><path d="M958.73 384.45L958.73 384.45" stroke="hsl(228.5, 77.2%, 51.5%)" stroke-width="1.5"></path><path d="M958.73 384.45L1160.06 390.28" stroke="hsl(228.5, 77.2%, 51.5%)" stroke-width="1.5"></path><path d="M958.73 384.45L821.02 547.46" stroke="hsl(228.5, 77.2%, 51.5%)" stroke-width="1.5"></path><path d="M958.73 384.45L1116.05 235.48" stroke="hsl(228.5, 77.2%, 51.5%)" stroke-width="1.5"></path><path d="M949.19 683.94L949.19 683.94" stroke="hsl(228.5, 77.2%, 51.5%)" stroke-width="1.5"></path><path d="M1116.05 235.48L1116.05 235.48" stroke="hsl(228.5, 77.2%, 51.5%)" stroke-width="1.5"></path><path d="M1116.05 235.48L1160.06 390.28" stroke="hsl(228.5, 77.2%, 51.5%)" stroke-width="1.5"></path><path d="M1116.05 235.48L1284.3 227.21" stroke="hsl(228.5, 77.2%, 51.5%)" stroke-width="1.5"></path><path d="M1116.05 235.48L1295.22 105.94" stroke="hsl(228.5, 77.2%, 51.5%)" stroke-width="1.5"></path><path d="M1116.05 235.48L1421.21 245.75" stroke="hsl(228.5, 77.2%, 51.5%)" stroke-width="1.5"></path><path d="M1160.06 390.28L1160.06 390.28" stroke="hsl(228.5, 77.2%, 51.5%)" stroke-width="1.5"></path><path d="M1160.06 390.28L1136.57 551.82" stroke="hsl(228.5, 77.2%, 51.5%)" stroke-width="1.5"></path><path d="M1160.06 390.28L1255.18 539.61" stroke="hsl(228.5, 77.2%, 51.5%)" stroke-width="1.5"></path><path d="M1160.06 390.28L1284.3 227.21" stroke="hsl(228.5, 77.2%, 51.5%)" stroke-width="1.5"></path><path d="M1160.06 390.28L981.1 240" stroke="hsl(228.5, 77.2%, 51.5%)" stroke-width="1.5"></path><path d="M1136.57 551.82L1136.57 551.82" stroke="hsl(228.5, 77.2%, 51.5%)" stroke-width="1.5"></path><path d="M1136.57 551.82L1157.91 662.69" stroke="hsl(228.5, 77.2%, 51.5%)" stroke-width="1.5"></path><path d="M1136.57 551.82L1255.18 539.61" stroke="hsl(228.5, 77.2%, 51.5%)" stroke-width="1.5"></path><path d="M1157.91 662.69L1157.91 662.69" stroke="hsl(228.5, 77.2%, 51.5%)" stroke-width="1.5"></path><path d="M1157.91 662.69L1263.95 668.16" stroke="hsl(228.5, 77.2%, 51.5%)" stroke-width="1.5"></path><path d="M1157.91 662.69L1255.18 539.61" stroke="hsl(228.5, 77.2%, 51.5%)" stroke-width="1.5"></path><path d="M1157.91 662.69L949.19 683.94" stroke="hsl(228.5, 77.2%, 51.5%)" stroke-width="1.5"></path><path d="M1157.91 662.69L971.59 560.35" stroke="hsl(228.5, 77.2%, 51.5%)" stroke-width="1.5"></path><path d="M1157.91 662.69L1399.67 645.42" stroke="hsl(228.5, 77.2%, 51.5%)" stroke-width="1.5"></path><path d="M1295.22 105.94L1295.22 105.94" stroke="hsl(228.5, 77.2%, 51.5%)" stroke-width="1.5"></path><path d="M1295.22 105.94L1400.22 71.01" stroke="hsl(228.5, 77.2%, 51.5%)" stroke-width="1.5"></path><path d="M1295.22 105.94L1284.3 227.21" stroke="hsl(228.5, 77.2%, 51.5%)" stroke-width="1.5"></path><path d="M1284.3 227.21L1284.3 227.21" stroke="hsl(228.5, 77.2%, 51.5%)" stroke-width="1.5"></path><path d="M1284.3 227.21L1400.22 71.01" stroke="hsl(228.5, 77.2%, 51.5%)" stroke-width="1.5"></path><path d="M1255.18 539.61L1255.18 539.61" stroke="hsl(228.5, 77.2%, 51.5%)" stroke-width="1.5"></path><path d="M1255.18 539.61L1263.95 668.16" stroke="hsl(228.5, 77.2%, 51.5%)" stroke-width="1.5"></path><path d="M1255.18 539.61L1399.67 645.42" stroke="hsl(228.5, 77.2%, 51.5%)" stroke-width="1.5"></path><path d="M1263.95 668.16L1263.95 668.16" stroke="hsl(228.5, 77.2%, 51.5%)" stroke-width="1.5"></path><path d="M1263.95 668.16L1399.67 645.42" stroke="hsl(228.5, 77.2%, 51.5%)" stroke-width="1.5"></path><path d="M1263.95 668.16L1136.57 551.82" stroke="hsl(228.5, 77.2%, 51.5%)" stroke-width="1.5"></path><path d="M1400.22 71.01L1400.22 71.01" stroke="hsl(228.5, 77.2%, 51.5%)" stroke-width="1.5"></path><path d="M1400.22 71.01L1587.05 103.01" stroke="hsl(228.5, 77.2%, 51.5%)" stroke-width="1.5"></path><path d="M1400.22 71.01L1552.19 -51.64" stroke="hsl(228.5, 77.2%, 51.5%)" stroke-width="1.5"></path><path d="M1451.91 342.31L1451.91 342.31" stroke="hsl(228.5, 77.2%, 51.5%)" stroke-width="1.5"></path><path d="M1451.91 342.31L1284.3 227.21" stroke="hsl(228.5, 77.2%, 51.5%)" stroke-width="1.5"></path><path d="M1451.91 342.31L1451.17 561.44" stroke="hsl(228.5, 77.2%, 51.5%)" stroke-width="1.5"></path><path d="M1451.17 561.44L1451.17 561.44" stroke="hsl(228.5, 77.2%, 51.5%)" stroke-width="1.5"></path><path d="M1451.17 561.44L1399.67 645.42" stroke="hsl(228.5, 77.2%, 51.5%)" stroke-width="1.5"></path><path d="M1451.17 561.44L1596.83 525.7" stroke="hsl(228.5, 77.2%, 51.5%)" stroke-width="1.5"></path><path d="M1451.17 561.44L1542.05 407.39" stroke="hsl(228.5, 77.2%, 51.5%)" stroke-width="1.5"></path><path d="M1399.67 645.42L1399.67 645.42" stroke="hsl(228.5, 77.2%, 51.5%)" stroke-width="1.5"></path><path d="M1552.19 -51.64L1552.19 -51.64" stroke="hsl(228.5, 77.2%, 51.5%)" stroke-width="1.5"></path><path d="M1552.19 -51.64L1587.05 103.01" stroke="hsl(228.5, 77.2%, 51.5%)" stroke-width="1.5"></path><path d="M1587.05 103.01L1587.05 103.01" stroke="hsl(228.5, 77.2%, 51.5%)" stroke-width="1.5"></path><path d="M1596.83 525.7L1596.83 525.7" stroke="hsl(228.5, 77.2%, 51.5%)" stroke-width="1.5"></path><path d="M1596.83 525.7L1399.67 645.42" stroke="hsl(228.5, 77.2%, 51.5%)" stroke-width="1.5"></path><path d="M1596.83 525.7L1451.91 342.31" stroke="hsl(228.5, 77.2%, 51.5%)" stroke-width="1.5"></path><path d="M1596.83 525.7L1421.21 245.75" stroke="hsl(228.5, 77.2%, 51.5%)" stroke-width="1.5"></path><path d="M1596.83 525.7L1604.49 189.43" stroke="hsl(228.5, 77.2%, 51.5%)" stroke-width="1.5"></path><circle r="25" cx="347.04" cy="499.86" fill="url(#SvgjsRadialGradient1001)"></circle><circle r="25" cx="971.59" cy="560.35" fill="url(#SvgjsRadialGradient1001)"></circle><circle r="25" cx="1307.59" cy="-61.05" fill="url(#SvgjsRadialGradient1001)"></circle><circle r="25" cx="1421.21" cy="245.75" fill="url(#SvgjsRadialGradient1001)"></circle><circle r="25" cx="1604.49" cy="189.43" fill="url(#SvgjsRadialGradient1001)"></circle><circle r="25" cx="1542.05" cy="407.39" fill="url(#SvgjsRadialGradient1001)"></circle><circle r="5" cx="-86.04" cy="495.41" fill="#8b9ad9"></circle><circle r="5" cx="-108.41" cy="639.21" fill="#8b9ad9"></circle><circle r="5" cx="98.94" cy="493.87" fill="#8b9ad9"></circle><circle r="5" cx="85.29" cy="664.48" fill="#8b9ad9"></circle><circle r="5" cx="223.93" cy="540.22" fill="#8b9ad9"></circle><circle r="5" cx="214.18" cy="647.76" fill="#8b9ad9"></circle><circle r="5" cx="372.71" cy="667.54" fill="#8b9ad9"></circle><circle r="5" cx="495.11" cy="408.81" fill="#8b9ad9"></circle><circle r="5" cx="526.12" cy="552.53" fill="#8b9ad9"></circle><circle r="5" cx="514.23" cy="662.16" fill="#8b9ad9"></circle><circle r="5" cx="703.74" cy="377.66" fill="#8b9ad9"></circle><circle r="5" cx="675.65" cy="519.4" fill="#8b9ad9"></circle><circle r="5" cx="658.97" cy="679.36" fill="#8b9ad9"></circle><circle r="5" cx="821.02" cy="547.46" fill="#8b9ad9"></circle><circle r="5" cx="846.77" cy="681.9" fill="#8b9ad9"></circle><circle r="5" cx="981.1" cy="240" fill="#8b9ad9"></circle><circle r="5" cx="958.73" cy="384.45" fill="#8b9ad9"></circle><circle r="5" cx="949.19" cy="683.94" fill="#8b9ad9"></circle><circle r="5" cx="1116.05" cy="235.48" fill="#8b9ad9"></circle><circle r="5" cx="1160.06" cy="390.28" fill="#8b9ad9"></circle><circle r="5" cx="1136.57" cy="551.82" fill="#8b9ad9"></circle><circle r="5" cx="1157.91" cy="662.69" fill="#8b9ad9"></circle><circle r="5" cx="1295.22" cy="105.94" fill="#8b9ad9"></circle><circle r="5" cx="1284.3" cy="227.21" fill="#8b9ad9"></circle><circle r="5" cx="1255.18" cy="539.61" fill="#8b9ad9"></circle><circle r="5" cx="1263.95" cy="668.16" fill="#8b9ad9"></circle><circle r="5" cx="1400.22" cy="71.01" fill="#8b9ad9"></circle><circle r="5" cx="1451.91" cy="342.31" fill="#8b9ad9"></circle><circle r="5" cx="1451.17" cy="561.44" fill="#8b9ad9"></circle><circle r="5" cx="1399.67" cy="645.42" fill="#8b9ad9"></circle><circle r="5" cx="1552.19" cy="-51.64" fill="#8b9ad9"></circle><circle r="5" cx="1587.05" cy="103.01" fill="#8b9ad9"></circle><circle r="5" cx="1596.83" cy="525.7" fill="#8b9ad9"></circle></g><defs><mask id="SvgjsMask1000"><rect width="1440" height="560" fill="#ffffff"></rect></mask><radialGradient id="SvgjsRadialGradient1001"><stop stop-color="#ffffff" offset="0.1"></stop><stop stop-color="#1735b3" offset="0.2"></stop><stop stop-color="rgba(23, 53, 179, 0)" offset="1"></stop></radialGradient></defs></svg>